<svg xmlns="http://www.w3.org/2000/svg" xmlns:svg="http://www.w3.org/2000/svg" id="svg3680" width="800" height="478.667" version="1.1" viewBox="0 0 800 478.667"><metadata id="metadata3686"/><path style="fill:none;stroke:#000;stroke-width:1.7659235px;stroke-linecap:butt;stroke-linejoin:miter;stroke-opacity:1" id="path3690" d="M 80.670813,338.51291 H 494.47506 V 281.62214 H 596.46317 L 595.62719,4.7149894 628.46564,4.3963328 c 0,0 0.60031,100.4997672 0.60031,357.3373172 h -525.824 v 36.57263 H 81.506783 Z"/><rect style="fill:none;stroke:#000;stroke-width:1.76680696" id="rect4553" width="167.21" height="277.571" x="629.053" y="4.394"/><text style="font-style:normal;font-weight:400;font-size:40.95228577px;line-height:1.25;font-family:sans-serif;letter-spacing:0;word-spacing:0;fill:#000;fill-opacity:1;stroke:none;stroke-width:1.02380705" id="text4557" x="-267.586" y="695.307" transform="matrix(0,-0.96429784,1.037024,0,0,0)" xml:space="preserve"><tspan id="tspan4555" x="-267.586" y="695.307" rotate="0 0 0 0 0 0 0 0 0 0 0 0 0" style="stroke-width:1.02380705">laboratorios</tspan></text><rect style="fill:none;stroke:#000;stroke-width:1.75670195" id="rect4561" width="97.808" height="110.298" x="103.242" y="361.734"/><rect style="fill:none;stroke:#000;stroke-width:1.75670183" id="rect4563" width="100.316" height="110.298" x="201.05" y="361.734"/><rect style="fill:none;stroke:#000;stroke-width:1.734689" id="rect4561-6" width="95.372" height="110.298" x="301.366" y="361.734"/><rect style="fill:none;stroke:#000;stroke-width:1.75670183" id="rect4563-6" width="100.316" height="110.298" x="396.739" y="361.734"/><rect style="fill:none;stroke:#000;stroke-width:1.77519929" id="rect4591" width="50.086" height="56.891" x="497.055" y="361.734"/><rect style="fill:none;stroke:#000;stroke-width:1.77519929" id="rect4593" width="46.814" height="56.891" x="547.141" y="361.734"/><rect style="fill:none;stroke:#000;stroke-width:1.78187609" id="rect4591-7" width="50.356" height="57.012" x="593.955" y="361.734"/><rect style="fill:none;stroke:#000;stroke-width:1.81068635" id="rect4591-7-4-6-2" width="50.086" height="59.188" x="99.987" y="279.435"/><rect style="fill:none;stroke:#000;stroke-width:1.87776184" id="rect4593-5-3-8-5" width="50.347" height="59.188" x="150.073" y="279.435"/><rect style="fill:none;stroke:#000;stroke-width:1.7915957" id="rect4591-7-4-6-8-9" width="50.101" height="57.929" x="200.42" y="280.694"/><rect style="fill:none;stroke:#000;stroke-width:1.79060566" id="rect4593-5-3-8-9-0" width="46.785" height="57.919" x="250.521" y="280.704"/><rect style="fill:none;stroke:#000;stroke-width:1.7659235" id="rect4591-7-4-6-2-3" width="50.086" height="56.298" x="397.409" y="281.931"/><rect style="fill:none;stroke:#000;stroke-width:1.7659235" id="rect4593-5-3-8-5-7" width="46.814" height="56.298" x="447.495" y="281.931"/><rect style="fill:none;stroke:#000;stroke-width:1.7659235" id="rect4758" width="97.808" height="73.726" x="5.434" y="398.306"/><rect style="fill:none;stroke:#000;stroke-width:1.74662316" id="rect4760" width="75.237" height="35.412" x="5.434" y="362.895"/><rect style="fill:none;stroke:#000;stroke-width:1.7064656" id="rect4762" width="75.237" height="24.382" x="5.434" y="338.513"/><rect style="fill:none;stroke:#000;stroke-width:1.78520155" id="rect4764" width="94.554" height="59.188" x="5.434" y="279.435"/><rect style="fill:none;stroke:#000;stroke-width:1.75150669" id="rect4766" width="101.152" height="71.984" x="494.475" y="209.638"/><rect style="fill:none;stroke:#000;stroke-width:1.75150752" id="rect4795" width="101.152" height="65.018" x="494.475" y="144.62"/><rect style="fill:none;stroke:#000;stroke-width:1.76592386" id="rect4797" width="101.152" height="70.823" x="494.475" y="73.797"/><rect style="fill:none;stroke:#000;stroke-width:1.78950548" id="rect4799" width="101.152" height="69.082" x="494.475" y="4.715"/></svg>