<svg xmlns="http://www.w3.org/2000/svg" xmlns:svg="http://www.w3.org/2000/svg" id="svg3680" width="800" height="478.667" version="1.1" viewBox="0 0 800 478.667"><metadata id="metadata3686"/><path style="fill:none;stroke:#000;stroke-width:1px;stroke-linecap:butt;stroke-linejoin:miter;stroke-opacity:1" id="path3690" d="M 46.549272,365.05487 H 241.81953 v -38.65956 h 48.12721 l -0.39449,-188.16952 h -9.46764 v -36.68714 h 56.4114 V 84.970267 h 370.42176 l 0.39448,17.357353 h 17.35736 v 138.85885 h 22.09118 v 48.12721 h -22.48567 v 91.52061 H 57.200377 v 24.85257 H 46.943758 Z"/><path style="fill:none;stroke:#000;stroke-width:1px;stroke-linecap:butt;stroke-linejoin:miter;stroke-opacity:1" id="path3696" d="M 305.72183,364.57886 V 137.79798 h 76.43045 v -36.82052 h 281.45377 l 0.27894,36.26263 h 9.76301 v 10.59984 h 35.14686 v 93.72494 h -9.76302 v 46.86247 h 9.48407 v 76.98835 z"/><rect style="fill:none;stroke:#000" id="rect4553" width="78.507" height="189.386" x="305.722" y="137.798"/><text style="font-style:normal;font-weight:400;font-size:26.83517647px;line-height:1.25;font-family:sans-serif;letter-spacing:0;word-spacing:0;fill:#000;fill-opacity:1;stroke:none;stroke-width:.67087936" id="text4557" x="-315.673" y="354.954" transform="rotate(-90)" xml:space="preserve"><tspan id="tspan4555" x="-315.673" y="354.954" rotate="0 0 0 0 0 0 0 0 0 0 0 0 0" style="stroke-width:.67087936">laboratorios</tspan></text><rect style="fill:none;stroke:#000;stroke-width:.9947781" id="rect4561" width="46.155" height="74.952" x="57.2" y="380.834"/><rect style="fill:none;stroke:#000;stroke-width:.99477804" id="rect4563" width="47.338" height="74.952" x="103.355" y="380.834"/><rect style="fill:none;stroke:#000;stroke-width:.98231268" id="rect4561-6" width="45.005" height="74.952" x="150.693" y="380.834"/><rect style="fill:none;stroke:#000;stroke-width:.99477804" id="rect4563-6" width="47.338" height="74.952" x="195.699" y="380.834"/><rect style="fill:none;stroke:#000;stroke-width:1.00525272" id="rect4591" width="23.635" height="38.66" x="243.037" y="380.834"/><rect style="fill:none;stroke:#000;stroke-width:1.00525272" id="rect4593" width="22.091" height="38.66" x="266.672" y="380.834"/><rect style="fill:none;stroke:#000;stroke-width:1.00903356" id="rect4591-7" width="23.762" height="38.742" x="288.763" y="380.834"/><rect style="fill:none;stroke:#000;stroke-width:1.00632799" id="rect4593-5" width="22.091" height="38.742" x="312.526" y="380.834"/><rect style="fill:none;stroke:#000;stroke-width:1.04261613" id="rect4591-3" width="25.349" height="38.775" x="334.617" y="380.801"/><rect style="fill:none;stroke:#000;stroke-width:1.00675452" id="rect4593-8" width="22.091" height="38.775" x="359.966" y="380.801"/><rect style="fill:none;stroke:#000;stroke-width:1.0083847" id="rect4591-7-4" width="23.762" height="38.692" x="382.057" y="380.884"/><rect style="fill:none;stroke:#000;stroke-width:1.00568104" id="rect4593-5-3" width="22.091" height="38.692" x="405.819" y="380.884"/><rect style="fill:none;stroke:#000;stroke-width:1.01620054" id="rect4591-6" width="23.919" height="39.037" x="427.911" y="380.54"/><rect style="fill:none;stroke:#000;stroke-width:1.01014328" id="rect4593-3" width="22.091" height="39.037" x="451.83" y="380.54"/><rect style="fill:none;stroke:#000;stroke-width:1.01178622" id="rect4591-7-7" width="23.762" height="38.954" x="473.921" y="380.623"/><rect style="fill:none;stroke:#000;stroke-width:1.00907338" id="rect4593-5-0" width="22.091" height="38.954" x="497.684" y="380.623"/><rect style="fill:none;stroke:#000;stroke-width:1.00977123" id="rect4591-3-0" width="23.655" height="38.974" x="519.775" y="380.623"/><rect style="fill:none;stroke:#000;stroke-width:1.04859066" id="rect4593-8-5" width="23.828" height="38.998" x="543.43" y="380.623"/><rect style="fill:none;stroke:#000;stroke-width:1.01186204" id="rect4591-7-4-6" width="23.748" height="38.983" x="567.259" y="380.623"/><rect style="fill:none;stroke:#000;stroke-width:1.04328442" id="rect4593-5-3-8" width="23.763" height="38.71" x="591.007" y="380.623"/><rect style="fill:none;stroke:#000;stroke-width:1.00473535" id="rect4591-7-4-6-8" width="23.601" height="38.676" x="614.77" y="380.623"/><rect style="fill:none;stroke:#000;stroke-width:1.00546646" id="rect4593-5-3-8-9" width="22.091" height="38.676" x="638.371" y="380.623"/><rect style="fill:none;stroke:#000" id="rect4591-7-4-6-4" width="23.635" height="38.257" x="383.51" y="326.126"/><rect style="fill:none;stroke:#000" id="rect4593-5-3-8-0" width="22.091" height="38.257" x="407.145" y="326.126"/><rect style="fill:none;stroke:#000" id="rect4591-7-4-6-88" width="23.635" height="38.257" x="429.51" y="326.126"/><rect style="fill:none;stroke:#000" id="rect4593-5-3-8-7" width="22.091" height="38.257" x="453.145" y="326.126"/><rect style="fill:none;stroke:#000;stroke-width:1.02534819" id="rect4591-7-4-6-2" width="23.635" height="40.221" x="55.665" y="324.909"/><rect style="fill:none;stroke:#000;stroke-width:1.06333137" id="rect4593-5-3-8-5" width="23.758" height="40.221" x="79.3" y="324.909"/><rect style="fill:none;stroke:#000;stroke-width:1.01453757" id="rect4591-7-4-6-8-9" width="23.642" height="39.365" x="103.058" y="325.764"/><rect style="fill:none;stroke:#000;stroke-width:1.01397693" id="rect4593-5-3-8-9-0" width="22.077" height="39.358" x="126.7" y="325.771"/><rect style="fill:none;stroke:#000" id="rect4591-7-4-6-2-3" width="23.635" height="38.257" x="196.015" y="326.605"/><rect style="fill:none;stroke:#000" id="rect4593-5-3-8-5-7" width="22.091" height="38.257" x="219.65" y="326.605"/><rect style="fill:none;stroke:#000" id="rect4758" width="46.155" height="50.1" x="11.046" y="405.687"/><rect style="fill:none;stroke:#000;stroke-width:.98907071" id="rect4760" width="35.504" height="24.064" x="11.046" y="381.623"/><rect style="fill:none;stroke:#000;stroke-width:.96633047" id="rect4762" width="35.504" height="16.568" x="11.046" y="365.055"/><rect style="fill:none;stroke:#000;stroke-width:1.01091671" id="rect4764" width="44.619" height="40.221" x="11.046" y="324.909"/><rect style="fill:none;stroke:#000" id="rect4766" width="48.522" height="48.916" x="241.425" y="277.479"/><rect style="fill:none;stroke:#000" id="rect4795" width="48.522" height="44.182" x="241.425" y="233.297"/><rect style="fill:none;stroke:#000" id="rect4797" width="47.733" height="48.127" x="242.214" y="185.17"/><rect style="fill:none;stroke:#000" id="rect4799" width="48.522" height="44.971" x="241.425" y="140.198"/><rect style="fill:none;stroke:#000" id="rect4801" width="37.082" height="35.898" x="243.003" y="102.328"/><rect style="fill:none;stroke:#000" id="rect4803" width="47.338" height="56.806" x="243.003" y="45.522"/><rect style="fill:none;stroke:#000" id="rect4805" width="46.155" height="56.017" x="290.341" y="45.522"/><rect style="fill:none;stroke:#000" id="rect4807" width="22.88" height="37.871" x="381.862" y="46.311"/><rect style="fill:none;stroke:#000" id="rect4809" width="23.669" height="38.66" x="404.742" y="46.311"/><rect style="fill:none;stroke:#000" id="rect4811" width="47.338" height="77.319" x="428.411" y="7.651"/><rect style="fill:none;stroke:#000" id="rect4813" width="47.338" height="77.319" x="475.749" y="7.651"/><rect style="fill:none;stroke:#000" id="rect4815" width="45.76" height="77.319" x="523.088" y="7.651"/><rect style="fill:none;stroke:#000" id="rect4817" width="46.549" height="77.319" x="568.848" y="7.651"/><rect style="fill:none;stroke:#000" id="rect4819" width="47.338" height="30.77" x="615.397" y="54.2"/><rect style="fill:none;stroke:#000" id="rect4821" width="45.76" height="30.77" x="662.735" y="54.2"/><rect style="fill:none;stroke:#000" id="rect4823" width="78.897" height="48.127" x="708.496" y="54.2"/><rect style="fill:none;stroke:#000" id="rect4825" width="63.118" height="47.338" x="724.275" y="102.328"/><rect style="fill:none;stroke:#000" id="rect4827" width="62.329" height="45.76" x="725.064" y="149.666"/><rect style="fill:none;stroke:#000" id="rect4829" width="62.723" height="45.76" x="724.67" y="195.426"/><rect style="fill:none;stroke:#000" id="rect4831" width="40.632" height="48.127" x="746.761" y="241.186"/><rect style="fill:none;stroke:#000" id="rect4833" width="38.66" height="22.091" x="724.275" y="289.314"/><rect style="fill:none;stroke:#000" id="rect4835" width="38.66" height="24.458" x="724.275" y="311.405"/><rect style="fill:none;stroke:#000" id="rect4837" width="38.66" height="22.88" x="724.275" y="335.863"/><rect style="fill:none;stroke:#000" id="rect4839" width="38.66" height="22.091" x="724.275" y="358.743"/><rect style="fill:none;stroke:#000" id="rect4841" width="22.59" height="36.854" x="382.152" y="100.977"/><rect style="fill:none;stroke:#000" id="rect4843" width="23.669" height="37.082" x="404.742" y="100.75"/><rect style="fill:none;stroke:#000" id="rect4845" width="47.338" height="37.082" x="428.411" y="100.75"/><rect style="fill:none;stroke:#000" id="rect4847" width="23.669" height="37.082" x="475.749" y="100.75"/><rect style="fill:none;stroke:#000" id="rect4849" width="23.669" height="37.082" x="499.418" y="100.75"/><rect style="fill:none;stroke:#000" id="rect4851" width="46.549" height="37.082" x="523.088" y="100.75"/><rect style="fill:none;stroke:#000" id="rect4853" width="45.76" height="37.082" x="569.637" y="100.75"/><rect style="fill:none;stroke:#000" id="rect4855" width="23.669" height="37.082" x="615.397" y="100.75"/><rect style="fill:none;stroke:#000" id="rect4857" width="24.819" height="36.49" x="639.066" y="100.75"/><rect style="fill:none;stroke:#000" id="rect4859" width="38.17" height="23.259" x="670.625" y="218.306"/><rect style="fill:none;stroke:#000" id="rect4861" width="37.871" height="23.669" x="670.625" y="194.637"/><rect style="fill:none;stroke:#000" id="rect4863" width="47.063" height="78.225" x="475.236" y="286.158"/><rect style="fill:none;stroke:#000" id="rect4865" width="46.549" height="78.897" x="522.299" y="286.158"/><rect style="fill:none;stroke:#000" id="rect4867" width="46.549" height="78.897" x="568.848" y="286.158"/><rect style="fill:none;stroke:#000" id="rect4869" width="47.338" height="78.897" x="615.397" y="286.158"/><rect style="fill:none;stroke:#000" id="rect4871" width="45.78" height="76.628" x="662.735" y="288.427"/></svg>